# xmcd
#
# Track frame offsets:
#	150
#	37613
#	62525
#	89716
#	104132
#	130007
#	144769
#	150859
#	174504
#	191217
#	208242
#	223925
#	239510
#	294185
#	297080
#	315980
#
# Disc length: 4684 seconds
#
# Revision: 0
# Processed by: cddbd v1.5.2PL0 Copyright (c) Steve Scherf et al.
# Submitted via: EasyCDDAExtractor 11.6.0.1
#
DISCID=e6124a10
DTITLE=Jimi Hendrix - Studio 69 (04)
DYEAR=1969
DGENRE=Blues
TTITLE0=Midnight 1
TTITLE1=Midnight 2
TTITLE2=Midnight 3
TTITLE3=Bleeding Heart
TTITLE4=Hear My Train A Comin´
TTITLE5=Trash Man
TTITLE6=Rock And Roll Jam
TTITLE7=Ezy Rider Jam - click removed
TTITLE8=Stone Free Again 1
TTITLE9=Stone Free Again 2
TTITLE10=Stone Free Again 3
TTITLE11=Ship Passing In The Night - added slight fade out
TTITLE12=Keep On Groovin´ 1
TTITLE13=Keep On Groovin´ 2
TTITLE14=Keep On Groovin´ 3
TTITLE15=Keep On Groovin´ 4 - wj edit
EXTD=
EXTT0=
EXTT1=
EXTT2=
EXTT3=
EXTT4=
EXTT5=
EXTT6=
EXTT7=
EXTT8=
EXTT9=
EXTT10=
EXTT11=
EXTT12=
EXTT13=
EXTT14=
EXTT15=
PLAYORDER=
